<?xml version="1.0" encoding="UTF-8" standalone="no"?>
<svg
   xmlns:dc="http://purl.org/dc/elements/1.1/"
   xmlns:cc="http://creativecommons.org/ns#"
   xmlns:rdf="http://www.w3.org/1999/02/22-rdf-syntax-ns#"
   xmlns:svg="http://www.w3.org/2000/svg"
   xmlns="http://www.w3.org/2000/svg"
   xmlns:sodipodi="http://sodipodi.sourceforge.net/DTD/sodipodi-0.dtd"
   xmlns:inkscape="http://www.inkscape.org/namespaces/inkscape"
   width="1000"
   height="1000"
   viewBox="0 0 264.58333 264.58334"
   version="1.1"
   id="svg8"
   inkscape:version="1.0.2 (e86c870879, 2021-01-15)"
   sodipodi:docname="favicon-16x16.png.svg">
  <defs
     id="defs2" />
  <sodipodi:namedview
     id="base"
     pagecolor="#ffffff"
     bordercolor="#666666"
     borderopacity="1.0"
     inkscape:pageopacity="0.0"
     inkscape:pageshadow="2"
     inkscape:zoom="0.7"
     inkscape:cx="522.49484"
     inkscape:cy="508.40919"
     inkscape:document-units="mm"
     inkscape:current-layer="layer1"
     inkscape:document-rotation="0"
     showgrid="false"
     units="px"
     inkscape:window-width="1920"
     inkscape:window-height="1018"
     inkscape:window-x="0"
     inkscape:window-y="32"
     inkscape:window-maximized="1" />
  <metadata
     id="metadata5">
    <rdf:RDF>
      <cc:Work
         rdf:about="">
        <dc:format>image/svg+xml</dc:format>
        <dc:type
           rdf:resource="http://purl.org/dc/dcmitype/StillImage" />
        <dc:title></dc:title>
      </cc:Work>
    </rdf:RDF>
  </metadata>
  <g
     inkscape:label="Layer 1"
     inkscape:groupmode="layer"
     id="layer1">
    <path
       style="fill:#000080;stroke-width:0.264583"
       id="path67"
       d="m 29.092431,250.88133 c 0.237045,-0.36895 0.47409,-0.73789 0.711135,-1.10684 0.451431,-0.72217 0.895405,-1.44906 1.354294,-2.16651 0.741323,-1.15903 1.526297,-2.29032 2.246222,-3.46276 2.183222,-3.5555 4.753338,-8.10719 6.620298,-11.73145 1.452816,-2.8203 2.800716,-5.69342 4.201074,-8.54013 1.548145,-3.54583 3.22022,-7.04009 4.644437,-10.63749 1.806149,-4.56211 3.384164,-9.21137 5.042059,-13.82942 5.424977,-15.11122 10.610093,-30.30389 14.826189,-45.80531 1.390054,-5.11085 2.572618,-10.27589 3.858929,-15.41383 3.913759,-17.28045 6.831325,-34.78984 8.76695,-52.402033 0.891683,-8.113414 1.047155,-11.413726 1.607611,-19.415303 0.582004,-11.538259 1.299575,-23.072708 1.634636,-34.621805 0.09677,-5.023204 0.202287,-10.043749 0.575423,-15.054918 0.145614,-1.701187 0.316802,-3.398659 0.350883,-5.106401 0.01929,-0.232724 -0.02516,-1.152446 0.181475,-1.351316 0.05029,-0.0484 0.26993,-0.0176 0.208783,0.01606 -9.981711,5.494511 -10.957825,1.720886 -9.783591,5.702635 0.110731,0.416862 0.245425,0.828086 0.33219,1.250586 0.68235,3.322657 1.027909,6.764925 1.414261,10.126826 0.673254,5.858419 0.781743,7.396749 1.35984,13.561342 1.883894,20.191799 3.968604,40.363526 6.014463,60.539214 1.270566,13.3803 2.536095,26.7653 4.310298,40.09065 0.986298,7.4077 1.491993,10.26536 2.661441,17.56868 1.651344,9.79508 3.202572,19.60989 5.321162,29.31889 1.257181,5.76135 1.624304,6.86563 3.141417,12.51932 1.58352,5.36906 3.07095,10.77062 4.85085,16.07987 1.16942,3.48825 2.50702,6.92106 3.76624,10.37739 0.93132,2.55543 1.75101,5.16713 3.09811,7.54563 0.73466,1.29713 1.56428,2.53814 2.3407,3.81071 1.63652,2.71152 3.23976,5.44653 5.02521,8.0637 0.79866,1.22977 1.76261,2.33798 2.63495,3.51262 0,0 9.60507,-5.75783 9.60507,-5.75783 v 0 c -0.96382,-1.07062 -1.95974,-2.11956 -2.76768,-3.31884 -1.77529,-2.60279 -3.55019,-5.20789 -5.22105,-7.87956 -0.41648,-0.69744 -1.82114,-3.02749 -2.21751,-3.77668 -1.25331,-2.36891 -2.20492,-4.89067 -3.31282,-7.3264 -1.44288,-3.34073 -2.92273,-6.66504 -4.20562,-10.07227 -1.95787,-5.19991 -3.61858,-10.50686 -5.15829,-15.84356 -0.55916,-2.03467 -1.14973,-4.06096 -1.67747,-6.104 -3.01119,-11.65727 -5.12181,-23.52276 -7.29141,-35.35695 -0.490162,-2.82719 -1.009028,-5.64955 -1.470478,-8.48157 C 96.053748,130.20398 94.288459,113.8822 92.683732,97.554152 90.594897,77.277133 88.615562,56.980801 87.478012,36.624336 87.247222,31.979785 87.034888,27.33432 86.800478,22.689949 86.621667,19.147172 86.496929,15.568629 86.14406,12.03582 86.09659,11.560546 86.012737,11.089612 85.947075,10.616508 85.871735,10.338812 85.987625,9.6750945 85.721065,9.7834208 75.881272,13.78212 75.607682,11.470415 75.566397,16.636621 c -0.0423,1.651769 -0.08396,3.303502 -0.115269,4.95554 -0.109288,4.939519 -0.0576,9.875626 -0.0267,14.816124 -0.03266,11.305143 0.0874,22.614734 -0.326511,33.914577 -0.152355,3.058663 -0.269259,6.119299 -0.457065,9.175991 -1.274297,20.739907 -3.805569,41.429977 -8.36485,61.718357 -1.254178,5.11154 -2.388158,10.25407 -3.762539,15.33461 -2.709394,10.01554 -6.324251,21.23772 -9.738439,31.03303 -3.581572,10.27554 -6.891544,19.07717 -11.283628,29.02026 -1.618243,3.66348 -3.455839,7.22609 -5.183759,10.83914 -1.56453,2.90606 -3.070531,5.84439 -4.693591,8.71817 -3.781639,6.69574 -8.042952,13.1163 -12.798194,19.15903 0,0 10.276578,-4.44012 10.276579,-4.44012 z" />
    <path
       style="fill:#000080;stroke-width:0.264583"
       id="path69"
       d="m 52.198476,190.092 c 4.734179,-2.59696 5.318723,-2.89565 12.818449,-7.63315 1.271294,-0.80307 2.434188,-1.76617 3.644273,-2.6588 1.782257,-1.31472 3.597108,-2.58742 5.332664,-3.9632 2.345825,-1.85953 4.703193,-3.7135 6.907085,-5.73924 2.749415,-2.52716 5.291974,-5.27052 7.93796,-7.90578 2.797509,-3.39566 5.76892,-6.65522 8.392528,-10.18697 5.978865,-8.04838 11.639435,-17.46906 16.466595,-26.21664 5.23181,-9.48092 9.60565,-18.50461 13.96723,-28.403994 1.96175,-4.45253 3.74396,-8.982017 5.61593,-13.473025 7.08174,-18.168075 11.88445,-37.11461 15.60899,-56.224466 0.78909,-4.322856 1.49857,-8.674617 1.72908,-13.068223 -0.48198,-4.035904 -0.16611,-2.038984 -10.02505,5.549191 -0.45972,0.353842 0.14033,1.151784 0.21832,1.72665 0.14891,1.097616 0.30678,2.193997 0.46235,3.290688 1.24093,8.748041 0.33101,2.149686 1.77605,12.859457 2.08842,17.854186 4.12707,35.716146 6.37775,53.550909 0.63511,5.032732 4.17264,31.879423 4.8059,36.694593 2.81656,22.54592 5.42121,45.12052 7.68179,67.72946 0.57073,5.70799 1.57074,16.61107 2.13102,22.66478 0.54881,6.14937 1.1375,12.29505 1.72602,18.44071 0.20612,2.15239 0.41881,4.29087 0.72157,6.43108 0.045,0.25363 0.044,0.51987 0.13491,0.76087 0.0985,0.26117 0.69976,1.08163 1.09927,0.8821 3.58838,-1.79222 6.97811,-3.95742 10.45397,-5.95916 0.58511,-0.33697 2.31507,-1.39051 1.72823,-1.05656 -1.89105,1.07611 -3.76097,2.18894 -5.64145,3.28341 1.89108,-1.00542 3.76396,-2.04588 5.67326,-3.01625 5.11391,-2.59907 10.9463,-5.34949 16.16567,-7.65778 5.79221,-2.56163 12.01123,-5.14395 17.96695,-7.30406 3.02979,-1.09889 6.10531,-2.06735 9.15796,-3.10102 7.29336,-2.37633 14.74581,-4.17697 22.21091,-5.90768 0,0 7.62367,-5.82319 7.62367,-5.82319 v 0 c -7.69965,1.97424 -15.39301,3.98235 -22.97047,6.39489 -3.06131,1.02458 -6.14557,1.98301 -9.18393,3.07376 -6.03942,2.1681 -12.03425,4.65481 -17.92068,7.20389 -4.62322,2.00207 -10.88808,4.84964 -15.51036,7.07405 -1.74956,0.84195 -3.47372,1.7357 -5.21058,2.60355 -4.12819,2.34642 -8.25955,4.68728 -12.38457,7.03927 -0.67861,0.38692 -2.70826,1.55832 -2.02624,1.17743 2.91539,-1.62817 5.73182,-3.44234 8.7266,-4.91941 1.00483,-0.49559 -0.0828,0.81962 -0.16803,0.69165 -0.12418,-0.18632 -0.16213,-0.41745 -0.24319,-0.62617 -0.55846,-1.98273 -1.00839,-3.96641 -1.4168,-5.98771 -1.18561,-5.86781 -2.22276,-11.76506 -3.11758,-17.68437 -1.85613,-12.1967 -3.67293,-24.40096 -5.29006,-36.63216 -2.31897,-17.53949 -4.30123,-35.12233 -6.62879,-52.6608 -1.84361,-14.81024 -2.84268,-22.13432 -4.34057,-36.923025 -1.8427,-18.192922 -3.134,-36.443578 -4.16118,-54.698767 -0.21882,-3.812411 -0.5699,-9.382415 -0.70308,-13.395865 -0.0382,-1.150404 -0.0601,-2.301833 -0.0469,-3.452795 0.007,-0.597361 0.68136,-1.953971 0.10719,-1.788994 -8.80154,2.528953 -11.69518,7.822442 -9.91015,4.569429 0.43619,4.068389 -0.31812,8.245386 -0.6029,12.289381 -0.67462,5.139539 -0.84458,6.866929 -1.83099,12.271137 -2.65483,14.54495 -6.46922,28.873976 -11.6553,42.72844 -1.79067,4.442439 -3.47595,8.928819 -5.37199,13.327309 -4.15789,9.64559 -8.71644,19.10902 -13.85567,28.27413 -5.09671,9.08931 -10.774467,18.15602 -17.183374,26.39544 -2.791031,3.58821 -5.943579,6.87998 -8.915371,10.31997 -2.840053,2.68671 -5.573913,5.49032 -8.520157,8.06013 -4.209632,3.67179 -8.83099,6.91038 -13.408993,10.09993 -1.374291,0.95749 -5.724668,3.40854 -4.153591,2.82787 1.242179,-0.45911 10.033582,-5.72795 5.783644,-3.18774 0,0 -8.755812,6.97144 -8.755812,6.97144 z" />
  </g>
</svg>
