<?xml version="1.0" encoding="UTF-8" standalone="no"?>
<!-- Created with Inkscape (http://www.inkscape.org/) -->

<svg
   version="1.1"
   id="svg2"
   width="2829.3333"
   height="2829.3333"
   viewBox="0 0 2829.3333 2829.3333"
   sodipodi:docname="vecteezy_circuit-electronic-icon_.eps"
   xmlns:inkscape="http://www.inkscape.org/namespaces/inkscape"
   xmlns:sodipodi="http://sodipodi.sourceforge.net/DTD/sodipodi-0.dtd"
   xmlns="http://www.w3.org/2000/svg"
   xmlns:svg="http://www.w3.org/2000/svg">
  <defs
     id="defs6" />
  <sodipodi:namedview
     id="namedview4"
     pagecolor="#ffffff"
     bordercolor="#000000"
     borderopacity="0.25"
     inkscape:showpageshadow="2"
     inkscape:pageopacity="0.0"
     inkscape:pagecheckerboard="0"
     inkscape:deskcolor="#d1d1d1" />
  <g
     id="g8"
     inkscape:groupmode="layer"
     inkscape:label="ink_ext_XXXXXX"
     transform="matrix(1.3333333,0,0,-1.3333333,0,2829.3333)">
    <g
       id="g10"
       transform="scale(0.1)">
      <path
         d="m 11780.1,11918.1 h -2347 c -48.75,0 -88.27,-39.5 -88.27,-88.3 v -2347 c 0,-48.8 39.52,-88.3 88.27,-88.3 h 2347 c 48.8,0 88.3,39.5 88.3,88.3 v 2347 c 0,48.8 -39.5,88.3 -88.3,88.3"
         style="fill:#4f4c4c;fill-opacity:1;fill-rule:nonzero;stroke:none"
         id="path12" />
      <path
         d="m 8898.9,8748.4 c -110.55,0 -200.17,89.6 -200.17,200.2 V 12364 c 0,110.6 89.62,200.2 200.17,200.2 h 3415.4 c 110.6,0 200.2,-89.6 200.2,-200.2 V 8948.6 c 0,-110.6 -89.6,-200.2 -200.2,-200.2 z m 8642.2,-45.2 c 239.7,0 434.6,-195 434.6,-434.6 0,-239.7 -194.9,-434.7 -434.6,-434.7 -239.7,0 -434.6,195 -434.6,434.7 0,239.6 194.9,434.6 434.6,434.6 z M 16257.7,7473.7 c 222.1,0 402.8,-180.7 402.8,-402.8 0,-222.2 -180.7,-402.9 -402.8,-402.9 -222.2,0 -402.9,180.7 -402.9,402.9 0,222.1 180.7,402.8 402.9,402.8 z M 14601.9,4969.8 c 0,-222.1 -180.8,-402.8 -402.9,-402.8 -222.2,0 -402.9,180.7 -402.9,402.8 0,222.2 180.7,402.9 402.9,402.9 222.1,0 402.9,-180.7 402.9,-402.9 z M 13297.3,3686.4 c 0,-239.7 -195,-434.6 -434.6,-434.6 -239.7,0 -434.6,194.9 -434.6,434.6 0,239.6 194.9,434.6 434.6,434.6 239.6,0 434.6,-195 434.6,-434.6 z m -2256.1,-706.8 c 0,-239.6 -194.9,-434.6 -434.6,-434.6 -239.7,0 -434.6,195 -434.6,434.6 0,239.7 194.9,434.7 434.6,434.7 239.7,0 434.6,-195 434.6,-434.7 z m -2394.68,697.9 c 0,-239.7 -194.96,-434.6 -434.61,-434.6 -239.65,0 -434.62,194.9 -434.62,434.6 0,239.6 194.97,434.6 434.62,434.6 239.65,0 434.61,-195 434.61,-434.6 z M 7417.08,4961 c 0,-222.2 -180.72,-402.9 -402.87,-402.9 -222.14,0 -402.87,180.7 -402.87,402.9 0,222.1 180.73,402.8 402.87,402.8 222.15,0 402.87,-180.7 402.87,-402.8 z M 4954.06,6668 c -222.14,0 -402.87,180.7 -402.87,402.9 0,222.1 180.73,402.8 402.87,402.8 222.14,0 402.87,-180.7 402.87,-402.8 0,-222.2 -180.73,-402.9 -402.87,-402.9 z M 3670.59,7833.9 c -239.66,0 -434.61,195 -434.61,434.7 0,239.6 194.95,434.6 434.61,434.6 239.65,0 434.63,-195 434.63,-434.6 0,-239.7 -194.98,-434.7 -434.63,-434.7 z m -750.1,2397.2 c -239.66,0 -434.64,195 -434.64,434.7 0,239.6 194.98,434.6 434.64,434.6 239.66,0 434.61,-195 434.61,-434.6 0,-239.7 -194.95,-434.7 -434.61,-434.7 z m 584.13,2385.3 c -239.65,0 -434.61,194.9 -434.61,434.6 0,239.6 194.96,434.6 434.61,434.6 239.66,0 434.61,-195 434.61,-434.6 0,-239.7 -194.95,-434.6 -434.61,-434.6 z m 1283.47,1229.4 c -222.14,0 -402.88,180.7 -402.88,402.9 0,222.1 180.74,402.9 402.88,402.9 222.14,0 402.87,-180.8 402.87,-402.9 0,-222.2 -180.73,-402.9 -402.87,-402.9 z m 1823.25,2499.8 c 0,222.1 180.73,402.8 402.87,402.8 222.15,0 402.87,-180.7 402.87,-402.8 0,-222.2 -180.72,-402.9 -402.87,-402.9 -222.14,0 -402.87,180.7 -402.87,402.9 z M 7915.89,17629 c 0,239.7 194.97,434.7 434.63,434.7 239.66,0 434.61,-195 434.61,-434.7 0,-239.6 -194.95,-434.6 -434.61,-434.6 -239.66,0 -434.63,195 -434.63,434.6 z m 2256.11,618.2 c 0,239.6 194.9,434.6 434.6,434.6 239.7,0 434.6,-195 434.6,-434.6 0,-239.7 -194.9,-434.7 -434.6,-434.7 -239.7,0 -434.6,195 -434.6,434.7 z m 2394.7,-609.3 c 0,239.7 194.9,434.7 434.6,434.7 239.6,0 434.6,-195 434.6,-434.7 0,-239.6 -195,-434.6 -434.6,-434.6 -239.7,0 -434.6,195 -434.6,434.6 z m 1229.4,-1283.4 c 0,222.1 180.7,402.8 402.9,402.8 222.1,0 402.9,-180.7 402.9,-402.8 0,-222.2 -180.8,-402.9 -402.9,-402.9 -222.2,0 -402.9,180.7 -402.9,402.9 z m 2627.5,-1702.9 c 222.2,0 402.9,-180.8 402.9,-402.9 0,-222.2 -180.7,-402.9 -402.9,-402.9 -222.1,0 -402.8,180.7 -402.8,402.9 0,222.1 180.7,402.9 402.8,402.9 z m 1283.5,-1166 c 239.6,0 434.6,-195 434.6,-434.6 0,-239.7 -195,-434.6 -434.6,-434.6 -239.7,0 -434.6,194.9 -434.6,434.6 0,239.6 194.9,434.6 434.6,434.6 z m 585.6,-2385.2 c 239.7,0 434.7,-195 434.7,-434.6 0,-239.7 -195,-434.7 -434.7,-434.7 -239.6,0 -434.6,195 -434.6,434.7 0,239.6 195,434.6 434.6,434.6 z m -763.5,-609.2 c 79.6,-348.4 391.4,-609.3 763.5,-609.3 432.2,0 783.9,351.7 783.9,783.9 0,432.2 -351.7,783.8 -783.9,783.8 -372.1,0 -683.9,-260.9 -763.5,-609.2 h -4359 v 248 h 1203.3 l 1464.9,1788 h 1105.1 c 79.7,-348.3 391.4,-609.3 763.6,-609.3 432.2,0 783.8,351.7 783.8,783.9 0,432.2 -351.6,783.8 -783.8,783.8 -372.1,0 -683.9,-260.9 -763.6,-609.2 H 15673 l -1464.8,-1788 h -1038 v 1029 h 704.8 l 1093.4,1607.5 h 724.4 c 79.1,-330.7 376.3,-577.5 730.8,-577.5 414.7,0 752.1,337.4 752.1,752.1 0,414.7 -337.4,752.1 -752.1,752.1 -354.5,0 -651.7,-246.9 -730.8,-577.5 h -909.2 l -1093.4,-1607.5 h -520 v 187.6 c 0,119.5 -96.9,216.5 -216.5,216.5 h -187.6 v 401.1 l 1607.5,1093.5 v 909.2 c 330.6,79 577.5,376.2 577.5,730.8 0,414.7 -337.4,752.1 -752.1,752.1 -414.7,0 -752.1,-337.4 -752.1,-752.1 0,-354.6 246.8,-651.8 577.5,-730.8 v -724.4 l -1607.5,-1093.5 v -585.9 h -1029 v 919.1 l 1788,1464.9 v 1270.5 c 348.3,79.6 609.2,391.4 609.2,763.5 0,432.2 -351.6,783.9 -783.8,783.9 -432.2,0 -783.8,-351.7 -783.8,-783.9 0,-372.1 260.9,-683.9 609.2,-763.5 v -1105.2 l -1788,-1464.8 v -1084.5 h -257.5 v 4263.7 c 348.3,79.7 609.2,391.4 609.2,763.6 0,432.2 -351.6,783.8 -783.8,783.8 -432.2,0 -783.84,-351.6 -783.84,-783.8 0,-372.2 260.94,-683.9 609.24,-763.6 v -4263.7 h -118.9 v 1075.6 l -1787.96,1464.8 v 1105.2 c 348.3,79.7 609.22,391.4 609.22,763.5 0,432.3 -351.64,783.9 -783.84,783.9 -432.23,0 -783.87,-351.6 -783.87,-783.9 0,-372.1 260.93,-683.9 609.26,-763.5 V 15595 l 1787.95,-1464.9 v -910.2 H 8796.29 v 577 l -1607.46,1093.5 v 724.4 c 330.64,79 577.48,376.3 577.48,730.8 0,414.7 -337.38,752.1 -752.1,752.1 -414.71,0 -752.1,-337.4 -752.1,-752.1 0,-354.5 246.84,-651.8 577.49,-730.8 v -909.2 l 1607.46,-1093.5 v -392.2 h -187.55 c -119.56,0 -216.51,-97 -216.51,-216.5 v -187.6 H 7521.51 L 6428.1,14423.3 h -909.19 c -79.06,330.6 -376.3,577.5 -730.82,577.5 -414.71,0 -752.1,-337.4 -752.1,-752.1 0,-414.7 337.39,-752.1 752.1,-752.1 354.52,0 651.76,246.8 730.82,577.5 H 6243.3 L 7336.72,12466.6 H 8043 v -1029 H 7003.52 l -1464.86,1788 H 4268.17 c -79.68,348.3 -391.44,609.2 -763.55,609.2 -432.2,0 -783.84,-351.6 -783.84,-783.8 0,-432.2 351.64,-783.9 783.84,-783.9 372.13,0 683.9,261 763.55,609.3 H 5373.3 l 1464.85,-1788 H 8043 v -248 H 3684.03 c -79.67,348.3 -391.44,609.2 -763.54,609.2 -432.23,0 -783.87,-351.6 -783.87,-783.8 0,-432.2 351.64,-783.9 783.87,-783.9 372.1,0 683.89,260.9 763.54,609.3 H 8043 v -260.1 H 7004.15 L 5539.27,8443.2 H 4434.16 c -79.69,348.3 -391.45,609.2 -763.57,609.2 -432.2,0 -783.84,-351.6 -783.84,-783.8 0,-432.3 351.64,-783.9 783.84,-783.9 372.12,0 683.91,260.9 763.57,609.3 H 5704.62 L 7169.5,9881.9 H 8043 v -1029 H 7502.69 L 6409.28,7245.5 h -724.42 c -79.04,330.6 -376.29,577.5 -730.8,577.5 -414.71,0 -752.1,-337.4 -752.1,-752.1 0,-414.8 337.39,-752.1 752.1,-752.1 354.51,0 651.76,246.8 730.8,577.4 h 909.21 L 7687.48,8503.7 H 8043 v -194.5 c 0,-119.6 96.95,-216.5 216.51,-216.5 h 187.55 V 7694.4 L 6839.6,6601 v -909.2 c -330.65,-79.1 -577.49,-376.3 -577.49,-730.8 0,-414.8 337.39,-752.1 752.1,-752.1 414.72,0 752.1,337.3 752.1,752.1 0,354.5 -246.84,651.7 -577.48,730.8 v 724.4 l 1607.46,1093.4 v 583.1 H 9825.27 V 7176.4 L 8037.29,5711.5 V 4441.1 c -348.3,-79.7 -609.22,-391.5 -609.22,-763.6 0,-432.2 351.64,-783.9 783.84,-783.9 432.2,0 783.84,351.7 783.84,783.9 0,372.1 -260.93,683.9 -609.23,763.6 V 5546.2 L 10174.5,7011 V 8092.7 H 10432 V 3743.2 c -348.3,-79.7 -609.24,-391.4 -609.24,-763.6 0,-432.2 351.64,-783.8 783.84,-783.8 432.2,0 783.8,351.6 783.8,783.8 0,372.2 -260.9,683.9 -609.2,763.6 v 4349.5 h 118.9 V 7019.9 l 1788,-1464.8 V 4450 c -348.3,-79.7 -609.3,-391.5 -609.3,-763.6 0,-432.2 351.7,-783.9 783.9,-783.9 432.2,0 783.9,351.7 783.9,783.9 0,372.1 -261,683.9 -609.3,763.6 v 1270.4 l -1788,1464.9 v 907.4 h 1167.6 v -574.2 l 1607.5,-1093.4 v -724.4 c -330.7,-79.1 -577.5,-376.3 -577.5,-730.9 0,-414.7 337.4,-752.1 752.1,-752.1 414.7,0 752.1,337.4 752.1,752.1 0,354.6 -246.9,651.8 -577.5,730.9 v 909.2 l -1607.5,1093.4 v 389.4 h 187.6 c 119.6,0 216.5,96.9 216.5,216.5 v 194.5 h 378.9 l 1093.4,-1607.5 h 884.3 c 79.1,-330.6 376.3,-577.4 730.9,-577.4 414.6,0 752,337.3 752,752.1 0,414.7 -337.4,752.1 -752,752.1 -354.6,0 -651.8,-246.9 -730.9,-577.5 h -699.5 l -1093.4,1607.4 h -563.7 v 1029 h 872 L 15507.1,8094 h 1270.5 c 79.6,-348.4 391.4,-609.3 763.5,-609.3 432.2,0 783.9,351.6 783.9,783.9 0,432.2 -351.7,783.8 -783.9,783.8 -372.1,0 -683.9,-260.9 -763.5,-609.2 h -1105.2 l -1464.8,1787.9 h -1037.4 v 260.1 h 4359"
         style="fill:#4f4c4c;fill-opacity:1;fill-rule:nonzero;stroke:none"
         id="path14" />
    </g>
  </g>
</svg>
